<svg width="70" height="70" viewBox="0 0 70 70" fill="none" xmlns="http://www.w3.org/2000/svg">
    <g clip-path="url(#clip0_49_47)">
    <path d="M35 70C54.33 70 70 54.33 70 35C70 15.67 54.33 0 35 0C15.67 0 0 15.67 0 35C0 54.33 15.67 70 35 70Z" fill="#F7931A"/>
    <path d="M50.7262 30.6688C51.4131 26.0838 47.9197 23.6184 43.1466 21.9734L44.6953 15.7609L40.9153 14.8203L39.4059 20.8687C38.4128 20.6194 37.3934 20.3875 36.3763 20.1556L37.8966 14.0678L34.1166 13.125L32.5678 19.3353C31.7453 19.1472 30.9359 18.9634 30.1528 18.7666L30.1572 18.7469L24.9422 17.4453L23.9359 21.4834C23.9359 21.4834 26.7425 22.1266 26.6834 22.1659C28.2147 22.5488 28.4903 23.5616 28.4444 24.3666L26.6812 31.4431C26.7862 31.4694 26.9219 31.5087 27.075 31.5678L26.6747 31.4694L24.2028 41.3831C24.0147 41.8469 23.54 42.5447 22.4681 42.28C22.5075 42.3347 19.7206 41.5953 19.7206 41.5953L17.8438 45.9222L22.7656 47.1494C23.68 47.3791 24.5769 47.6197 25.4584 47.845L23.8944 54.1275L27.6722 55.0681L29.2209 48.8556C30.2534 49.1334 31.2553 49.3916 32.2353 49.6366L30.6909 55.8228L34.4709 56.7634L36.035 50.4941C42.4837 51.7147 47.3313 51.2225 49.3722 45.3906C51.0172 40.6963 49.2913 37.9859 45.8984 36.2206C48.3703 35.6519 50.2297 34.0266 50.7262 30.6688ZM42.0856 42.7831C40.9197 47.4797 33.0119 44.94 30.4481 44.3034L32.5263 35.98C35.09 36.6209 43.3084 37.8875 42.0856 42.7831ZM43.2559 30.6009C42.1906 34.8731 35.6106 32.7009 33.4778 32.1694L35.3591 24.6225C37.4919 25.1541 44.3672 26.145 43.2559 30.6009Z" fill="white"/>
    </g>
    <defs>
    <clipPath id="clip0_49_47">
    <rect width="70" height="70" fill="white"/>
    </clipPath>
    </defs>
    </svg>
    