<svg width="52" height="52" viewBox="0 0 52 52" fill="none" xmlns="http://www.w3.org/2000/svg">
    <g clip-path="url(#clip0_51_56)">
    <path d="M41.5999 9.53331L6.28324 23.1833C3.8999 24.05 3.8999 25.5666 5.8499 26L14.7332 28.8166L18.1999 39.2166C18.6332 40.3 18.4166 40.7333 19.4999 40.7333C20.3666 40.7333 20.7999 40.3 21.2332 39.8666C21.4499 39.65 23.3999 37.7 25.5666 35.5333L34.6666 42.25C36.3999 43.1166 37.4832 42.6833 37.9166 40.7333L43.9832 12.35C44.6332 9.96664 43.1166 8.66664 41.5999 9.53331ZM37.0499 16.0333L20.1499 31.4166L19.4999 38.5666L16.0332 28.1666L35.9666 15.6C36.8332 14.95 37.6999 15.3833 37.0499 16.0333Z" fill="#D6111E"/>
    </g>
    <defs>
    <clipPath id="clip0_51_56">
    <rect width="52" height="52" fill="white"/>
    </clipPath>
    </defs>
    </svg>
    