<svg width="70" height="70" viewBox="0 0 70 70" fill="none" xmlns="http://www.w3.org/2000/svg">
    <g clip-path="url(#clip0_49_43)">
    <path d="M35 70C54.33 70 70 54.33 70 35C70 15.67 54.33 0 35 0C15.67 0 0 15.67 0 35C0 54.33 15.67 70 35 70Z" fill="#26A17B"/>
    <path fill-rule="evenodd" clip-rule="evenodd" d="M39.2044 38.0253V38.0209C38.9638 38.0384 37.7234 38.1128 34.9562 38.1128C32.7469 38.1128 31.1916 38.0471 30.6447 38.0209V38.0274C22.1397 37.6534 15.7916 36.1724 15.7916 34.4006C15.7916 32.6309 22.1397 31.1499 30.6447 30.7693V36.5531C31.2003 36.5924 32.7928 36.6865 34.9934 36.6865C37.6337 36.6865 38.9572 36.5771 39.2044 36.5553V30.7737C47.6919 31.1521 54.0247 32.6331 54.0247 34.4006C54.0247 36.1724 47.6919 37.649 39.2044 38.0253ZM39.2044 30.1721V24.9965H51.0475V17.104H18.8016V24.9965H30.6447V30.1699C21.0197 30.6118 13.7812 32.5193 13.7812 34.8031C13.7812 37.0868 21.0197 38.9921 30.6447 39.4362V56.0218H39.2044V39.4318C48.8141 38.9899 56.035 37.0846 56.035 34.8031C56.035 32.5215 48.8141 30.6162 39.2044 30.1721Z" fill="white"/>
    </g>
    <defs>
    <clipPath id="clip0_49_43">
    <rect width="70" height="70" fill="white"/>
    </clipPath>
    </defs>
    </svg>
    