<svg width="245" height="53" viewBox="0 0 245 53" fill="none" xmlns="http://www.w3.org/2000/svg">
    <path d="M12.7956 19.287V23.2463C13.6838 23.0926 14.5966 23.0074 15.5292 23.0074C16.2748 23.0074 17.0068 23.0624 17.7252 23.1617V19.287H21.458L18.4381 14.0556L15.4169 8.82544L12.3982 14.0556L9.37695 19.287H12.7956Z" fill="url(#paint0_linear_64_18)"/>
    <path d="M3.41991 28.622C4.77157 27.0148 6.44851 25.6842 8.34764 24.7207V10.4622H12.0811L9.0605 5.23141L6.03992 0L3.02119 5.23141L0 10.4622H3.41991V28.622Z" fill="url(#paint1_linear_64_18)"/>
    <path d="M15.5292 24.6335C7.75187 24.6335 1.44531 30.8549 1.44531 38.5298C1.44531 46.2053 7.75246 52.4263 15.5292 52.4263C23.309 52.4263 29.6137 46.2053 29.6137 38.5298C29.6137 30.8549 23.309 24.6335 15.5292 24.6335ZM15.5292 49.4678C9.40719 49.4678 4.44429 44.5703 4.44429 38.5298C4.44429 32.4893 9.40719 27.5912 15.5292 27.5912C21.6537 27.5912 26.6166 32.4886 26.6166 38.5298C26.6166 44.5709 21.6537 49.4678 15.5292 49.4678Z" fill="url(#paint2_linear_64_18)"/>
    <path d="M19.0915 38.6229C18.7656 38.3013 18.3447 38.0285 17.8281 37.8045C17.5577 37.6884 17.0053 37.5273 16.1703 37.3218V32.6045C16.711 32.7132 17.1356 32.9391 17.4448 33.281C17.7565 33.6229 17.9589 34.1173 18.0577 34.7586L19.7729 34.5031C19.6253 33.4668 19.1896 32.6527 18.4644 32.0577C17.8984 31.5911 17.1337 31.314 16.1697 31.222V30.4407H15.1932V31.222C14.0934 31.3306 13.2645 31.63 12.7053 32.1126C11.8696 32.8336 11.453 33.776 11.453 34.94C11.453 35.5949 11.5943 36.18 11.8808 36.6948C12.1665 37.2088 12.5726 37.6131 13.1022 37.9038C13.8138 38.2976 14.5113 38.5581 15.1939 38.6858V43.8937C14.5421 43.8283 13.9835 43.5037 13.5157 42.9223C13.191 42.5094 12.9639 41.8644 12.8343 40.9849L11.166 41.2941C11.2284 42.1422 11.4481 42.8599 11.8246 43.4488C12.2035 44.0364 12.6516 44.4628 13.1713 44.727C13.6897 44.9893 14.3637 45.1732 15.1932 45.2763V46.9131H16.1697V45.2578C17.3306 45.2035 18.2768 44.7974 19.0082 44.0388C19.7383 43.2821 20.1043 42.3384 20.1043 41.2046C20.1043 40.6886 20.0161 40.2116 19.8407 39.7678C19.6674 39.3253 19.4168 38.9432 19.0915 38.6229ZM15.1945 37.1126C14.4384 36.8898 13.9021 36.5886 13.5873 36.2127C13.2707 35.8375 13.1127 35.3708 13.1127 34.8135C13.1127 34.2506 13.2972 33.7612 13.6694 33.3508C14.0409 32.9372 14.5495 32.6829 15.1945 32.5854V37.1126ZM17.7688 43.0673C17.3485 43.542 16.8165 43.816 16.1709 43.8944V38.9136C17.0603 39.1987 17.654 39.5203 17.9527 39.8814C18.2515 40.2418 18.4002 40.7195 18.4002 41.3139C18.3996 42.01 18.1898 42.5945 17.7688 43.0673Z" fill="url(#paint3_linear_64_18)"/>
    <path d="M54.7042 36.1875C54.5849 35.7727 54.4173 35.4062 54.2014 35.0881C53.9854 34.7642 53.7212 34.4915 53.4087 34.2699C53.1019 34.0426 52.7496 33.8693 52.3519 33.75C51.9599 33.6307 51.5252 33.571 51.0479 33.571C50.1559 33.571 49.3718 33.7926 48.6957 34.2358C48.0252 34.679 47.5025 35.3239 47.1275 36.1705C46.7525 37.0114 46.565 38.0398 46.565 39.2557C46.565 40.4716 46.7496 41.5057 47.119 42.358C47.4883 43.2102 48.011 43.8608 48.6871 44.3097C49.3633 44.7528 50.1616 44.9744 51.082 44.9744C51.9173 44.9744 52.6303 44.8267 53.2212 44.5312C53.8178 44.2301 54.2724 43.8068 54.5849 43.2614C54.9031 42.7159 55.0621 42.071 55.0621 41.3267L55.8121 41.4375H51.3121V38.6591H58.6161V40.858C58.6161 42.392 58.2923 43.7102 57.6445 44.8125C56.9968 45.9091 56.1048 46.7557 54.9684 47.3523C53.832 47.9432 52.5309 48.2386 51.065 48.2386C49.4286 48.2386 47.9911 47.8778 46.7525 47.1562C45.5138 46.429 44.5479 45.3977 43.8548 44.0625C43.1673 42.7216 42.8235 41.1307 42.8235 39.2898C42.8235 37.875 43.0281 36.6136 43.4371 35.5057C43.8519 34.392 44.4315 33.4489 45.1758 32.6761C45.9201 31.9034 46.7866 31.3153 47.7752 30.9119C48.7638 30.5085 49.8349 30.3068 50.9883 30.3068C51.9769 30.3068 52.8974 30.4517 53.7496 30.7415C54.6019 31.0256 55.3576 31.429 56.0167 31.9517C56.6815 32.4744 57.2241 33.0966 57.6445 33.8182C58.065 34.5341 58.3349 35.3239 58.4542 36.1875H54.7042ZM61.3881 48V30.5455H65.0785V44.9574H72.5614V48H61.3881ZM90.3654 39.2727C90.3654 41.1761 90.0046 42.7955 89.283 44.1307C88.5671 45.4659 87.5898 46.4858 86.3512 47.1903C85.1183 47.8892 83.7319 48.2386 82.1921 48.2386C80.641 48.2386 79.2489 47.8864 78.016 47.1818C76.783 46.4773 75.8086 45.4574 75.0927 44.1222C74.3768 42.7869 74.0188 41.1705 74.0188 39.2727C74.0188 37.3693 74.3768 35.75 75.0927 34.4148C75.8086 33.0795 76.783 32.0625 78.016 31.3636C79.2489 30.6591 80.641 30.3068 82.1921 30.3068C83.7319 30.3068 85.1183 30.6591 86.3512 31.3636C87.5898 32.0625 88.5671 33.0795 89.283 34.4148C90.0046 35.75 90.3654 37.3693 90.3654 39.2727ZM86.6239 39.2727C86.6239 38.0398 86.4393 37 86.07 36.1534C85.7063 35.3068 85.1921 34.6648 84.5273 34.2273C83.8626 33.7898 83.0842 33.571 82.1921 33.571C81.3001 33.571 80.5217 33.7898 79.8569 34.2273C79.1921 34.6648 78.6751 35.3068 78.3058 36.1534C77.9421 37 77.7603 38.0398 77.7603 39.2727C77.7603 40.5057 77.9421 41.5455 78.3058 42.392C78.6751 43.2386 79.1921 43.8807 79.8569 44.3182C80.5217 44.7557 81.3001 44.9744 82.1921 44.9744C83.0842 44.9744 83.8626 44.7557 84.5273 44.3182C85.1921 43.8807 85.7063 43.2386 86.07 42.392C86.4393 41.5455 86.6239 40.5057 86.6239 39.2727ZM93.0991 48V30.5455H100.088C101.372 30.5455 102.443 30.7358 103.301 31.1165C104.159 31.4972 104.804 32.0256 105.235 32.7017C105.667 33.3722 105.883 34.1449 105.883 35.0199C105.883 35.7017 105.747 36.3011 105.474 36.8182C105.201 37.3295 104.826 37.75 104.349 38.0795C103.877 38.4034 103.338 38.6335 102.73 38.7699V38.9403C103.395 38.9687 104.017 39.1562 104.596 39.5028C105.181 39.8494 105.656 40.3352 106.02 40.9602C106.383 41.5795 106.565 42.3182 106.565 43.1761C106.565 44.1023 106.335 44.929 105.875 45.6562C105.42 46.3778 104.747 46.9489 103.855 47.3693C102.963 47.7898 101.863 48 100.556 48H93.0991ZM96.7894 44.983H99.7979C100.826 44.983 101.576 44.7869 102.048 44.3949C102.52 43.9972 102.755 43.4687 102.755 42.8097C102.755 42.3267 102.639 41.9006 102.406 41.5312C102.173 41.1619 101.841 40.8722 101.409 40.6619C100.983 40.4517 100.474 40.3466 99.8832 40.3466H96.7894V44.983ZM96.7894 37.8494H99.5252C100.031 37.8494 100.48 37.7614 100.872 37.5852C101.27 37.4034 101.582 37.1477 101.809 36.8182C102.042 36.4886 102.159 36.0938 102.159 35.6335C102.159 35.0028 101.934 34.4943 101.485 34.108C101.042 33.7216 100.412 33.5284 99.5934 33.5284H96.7894V37.8494ZM111.975 48H108.02L114.046 30.5455H118.801L124.819 48H120.864L116.492 34.5341H116.355L111.975 48ZM111.728 41.1392H121.069V44.0199H111.728V41.1392ZM126.919 48V30.5455H130.61V44.9574H138.093V48H126.919ZM161.492 36.6562H157.759C157.691 36.1733 157.551 35.7443 157.341 35.3693C157.131 34.9886 156.861 34.6648 156.532 34.3977C156.202 34.1307 155.821 33.9261 155.39 33.7841C154.963 33.642 154.5 33.571 154 33.571C153.097 33.571 152.31 33.7955 151.64 34.2443C150.969 34.6875 150.449 35.3352 150.08 36.1875C149.711 37.0341 149.526 38.0625 149.526 39.2727C149.526 40.517 149.711 41.5625 150.08 42.4091C150.455 43.2557 150.978 43.8949 151.648 44.3267C152.319 44.7585 153.094 44.9744 153.975 44.9744C154.469 44.9744 154.926 44.9091 155.347 44.7784C155.773 44.6477 156.151 44.4574 156.48 44.2074C156.81 43.9517 157.083 43.642 157.299 43.2784C157.52 42.9148 157.674 42.5 157.759 42.0341L161.492 42.0511C161.395 42.8523 161.154 43.625 160.767 44.3693C160.387 45.108 159.873 45.7699 159.225 46.3551C158.583 46.9347 157.816 47.3949 156.924 47.7358C156.037 48.071 155.034 48.2386 153.915 48.2386C152.358 48.2386 150.966 47.8864 149.739 47.1818C148.517 46.4773 147.551 45.4574 146.841 44.1222C146.137 42.7869 145.784 41.1705 145.784 39.2727C145.784 37.3693 146.142 35.75 146.858 34.4148C147.574 33.0795 148.546 32.0625 149.773 31.3636C151 30.6591 152.381 30.3068 153.915 30.3068C154.926 30.3068 155.864 30.4489 156.728 30.733C157.597 31.017 158.367 31.4318 159.037 31.9773C159.708 32.517 160.253 33.179 160.674 33.9631C161.1 34.7472 161.373 35.6449 161.492 36.6562ZM164.138 48V30.5455H171.025C172.343 30.5455 173.468 30.7812 174.4 31.2528C175.337 31.7187 176.05 32.3807 176.539 33.2386C177.033 34.0909 177.28 35.0937 177.28 36.2472C177.28 37.4062 177.03 38.4034 176.53 39.2386C176.03 40.0682 175.306 40.7045 174.357 41.1477C173.414 41.5909 172.272 41.8125 170.931 41.8125H166.32V38.8466H170.334C171.039 38.8466 171.624 38.75 172.09 38.5568C172.556 38.3636 172.902 38.0739 173.13 37.6875C173.363 37.3011 173.479 36.821 173.479 36.2472C173.479 35.6676 173.363 35.179 173.13 34.7812C172.902 34.3835 172.553 34.0824 172.081 33.8778C171.615 33.6676 171.027 33.5625 170.317 33.5625H167.828V48H164.138ZM173.564 40.0568L177.902 48H173.828L169.584 40.0568H173.564ZM178.139 30.5455H182.272L186.252 38.0625H186.423L190.403 30.5455H194.537L188.17 41.8295V48H184.505V41.8295L178.139 30.5455ZM196.552 48V30.5455H203.439C204.762 30.5455 205.89 30.7983 206.822 31.304C207.754 31.804 208.464 32.5 208.953 33.392C209.447 34.2784 209.694 35.3011 209.694 36.4602C209.694 37.6193 209.444 38.642 208.944 39.5284C208.444 40.4148 207.72 41.1051 206.771 41.5994C205.828 42.0937 204.686 42.3409 203.345 42.3409H198.956V39.3835H202.748C203.458 39.3835 204.044 39.2614 204.504 39.017C204.97 38.767 205.316 38.4233 205.544 37.9858C205.777 37.5426 205.893 37.0341 205.893 36.4602C205.893 35.8807 205.777 35.375 205.544 34.9432C205.316 34.5057 204.97 34.1676 204.504 33.929C204.038 33.6847 203.447 33.5625 202.731 33.5625H200.243V48H196.552ZM211.426 33.5881V30.5455H225.762V33.5881H220.418V48H216.77V33.5881H211.426ZM243.365 39.2727C243.365 41.1761 243.005 42.7955 242.283 44.1307C241.567 45.4659 240.59 46.4858 239.351 47.1903C238.118 47.8892 236.732 48.2386 235.192 48.2386C233.641 48.2386 232.249 47.8864 231.016 47.1818C229.783 46.4773 228.809 45.4574 228.093 44.1222C227.377 42.7869 227.019 41.1705 227.019 39.2727C227.019 37.3693 227.377 35.75 228.093 34.4148C228.809 33.0795 229.783 32.0625 231.016 31.3636C232.249 30.6591 233.641 30.3068 235.192 30.3068C236.732 30.3068 238.118 30.6591 239.351 31.3636C240.59 32.0625 241.567 33.0795 242.283 34.4148C243.005 35.75 243.365 37.3693 243.365 39.2727ZM239.624 39.2727C239.624 38.0398 239.439 37 239.07 36.1534C238.706 35.3068 238.192 34.6648 237.527 34.2273C236.863 33.7898 236.084 33.571 235.192 33.571C234.3 33.571 233.522 33.7898 232.857 34.2273C232.192 34.6648 231.675 35.3068 231.306 36.1534C230.942 37 230.76 38.0398 230.76 39.2727C230.76 40.5057 230.942 41.5455 231.306 42.392C231.675 43.2386 232.192 43.8807 232.857 44.3182C233.522 44.7557 234.3 44.9744 235.192 44.9744C236.084 44.9744 236.863 44.7557 237.527 44.3182C238.192 43.8807 238.706 43.2386 239.07 42.392C239.439 41.5455 239.624 40.5057 239.624 39.2727Z" fill="white"/>
    <defs>
    <linearGradient id="paint0_linear_64_18" x1="9.37695" y1="23.2463" x2="23.5747" y2="11.3521" gradientUnits="userSpaceOnUse">
    <stop stop-color="#FFF7AE"/>
    <stop offset="0.17" stop-color="#FFFACF"/>
    <stop offset="0.37" stop-color="#9B6326"/>
    <stop offset="0.38" stop-color="#FFF7AE"/>
    <stop offset="0.53" stop-color="#D3C175"/>
    <stop offset="0.69" stop-color="#FCEEC4"/>
    <stop offset="0.7" stop-color="#B78626"/>
    <stop offset="0.82" stop-color="#FFFACF"/>
    <stop offset="1" stop-color="#9B6326"/>
    </linearGradient>
    <linearGradient id="paint1_linear_64_18" x1="5.1596e-07" y1="28.622" x2="20.5084" y2="19.9657" gradientUnits="userSpaceOnUse">
    <stop stop-color="#FFF7AE"/>
    <stop offset="0.17" stop-color="#FFFACF"/>
    <stop offset="0.37" stop-color="#9B6326"/>
    <stop offset="0.38" stop-color="#FFF7AE"/>
    <stop offset="0.53" stop-color="#D3C175"/>
    <stop offset="0.69" stop-color="#FCEEC4"/>
    <stop offset="0.7" stop-color="#B78626"/>
    <stop offset="0.82" stop-color="#FFFACF"/>
    <stop offset="1" stop-color="#9B6326"/>
    </linearGradient>
    <linearGradient id="paint2_linear_64_18" x1="1.44531" y1="52.4263" x2="29.2353" y2="24.2602" gradientUnits="userSpaceOnUse">
    <stop stop-color="#FFF7AE"/>
    <stop offset="0.17" stop-color="#FFFACF"/>
    <stop offset="0.37" stop-color="#9B6326"/>
    <stop offset="0.38" stop-color="#FFF7AE"/>
    <stop offset="0.53" stop-color="#D3C175"/>
    <stop offset="0.69" stop-color="#FCEEC4"/>
    <stop offset="0.7" stop-color="#B78626"/>
    <stop offset="0.82" stop-color="#FFFACF"/>
    <stop offset="1" stop-color="#9B6326"/>
    </linearGradient>
    <linearGradient id="paint3_linear_64_18" x1="11.166" y1="46.9131" x2="24.9764" y2="39.4193" gradientUnits="userSpaceOnUse">
    <stop stop-color="#FFF7AE"/>
    <stop offset="0.17" stop-color="#FFFACF"/>
    <stop offset="0.37" stop-color="#9B6326"/>
    <stop offset="0.38" stop-color="#FFF7AE"/>
    <stop offset="0.53" stop-color="#D3C175"/>
    <stop offset="0.69" stop-color="#FCEEC4"/>
    <stop offset="0.7" stop-color="#B78626"/>
    <stop offset="0.82" stop-color="#FFFACF"/>
    <stop offset="1" stop-color="#9B6326"/>
    </linearGradient>
    </defs>
    </svg>
    