<svg width="196" height="54" viewBox="0 0 196 54" fill="none" xmlns="http://www.w3.org/2000/svg">
    <mask id="mask0_47_3" style="mask-type:luminance" maskUnits="userSpaceOnUse" x="0" y="0" width="196" height="54">
    <path d="M195.955 0H0V54H195.955V0Z" fill="white"/>
    </mask>
    <g mask="url(#mask0_47_3)">
    <path d="M12.7956 19.287V23.2463C13.6838 23.0926 14.5966 23.0074 15.5292 23.0074C16.2748 23.0074 17.0068 23.0624 17.7252 23.1617V19.287H21.458L18.4381 14.0556L15.4169 8.82544L12.3982 14.0556L9.37695 19.287H12.7956Z" fill="url(#paint0_linear_47_3)"/>
    <path d="M3.41991 28.622C4.77157 27.0148 6.44851 25.6842 8.34764 24.7207V10.4622H12.0811L9.0605 5.23141L6.03992 0L3.02119 5.23141L0 10.4622H3.41991V28.622Z" fill="url(#paint1_linear_47_3)"/>
    <path d="M15.5292 24.6335C7.75187 24.6335 1.44531 30.8549 1.44531 38.5298C1.44531 46.2053 7.75246 52.4263 15.5292 52.4263C23.309 52.4263 29.6137 46.2053 29.6137 38.5298C29.6137 30.8549 23.309 24.6335 15.5292 24.6335ZM15.5292 49.4678C9.40719 49.4678 4.44429 44.5703 4.44429 38.5298C4.44429 32.4893 9.40719 27.5912 15.5292 27.5912C21.6537 27.5912 26.6166 32.4886 26.6166 38.5298C26.6166 44.5709 21.6537 49.4678 15.5292 49.4678Z" fill="url(#paint2_linear_47_3)"/>
    <path d="M19.0915 38.6229C18.7656 38.3013 18.3447 38.0285 17.8281 37.8045C17.5577 37.6884 17.0053 37.5273 16.1703 37.3218V32.6045C16.711 32.7132 17.1356 32.9391 17.4448 33.281C17.7565 33.6229 17.9589 34.1173 18.0577 34.7586L19.7729 34.5031C19.6253 33.4668 19.1896 32.6527 18.4644 32.0577C17.8984 31.5911 17.1337 31.314 16.1697 31.222V30.4407H15.1932V31.222C14.0934 31.3306 13.2645 31.63 12.7053 32.1126C11.8696 32.8336 11.453 33.776 11.453 34.94C11.453 35.5949 11.5943 36.18 11.8808 36.6948C12.1665 37.2088 12.5726 37.6131 13.1022 37.9038C13.8138 38.2976 14.5113 38.5581 15.1939 38.6858V43.8937C14.5421 43.8283 13.9835 43.5037 13.5157 42.9223C13.191 42.5094 12.9639 41.8644 12.8343 40.9849L11.166 41.2941C11.2284 42.1422 11.4481 42.8599 11.8246 43.4488C12.2035 44.0364 12.6516 44.4628 13.1713 44.727C13.6897 44.9893 14.3637 45.1732 15.1932 45.2763V46.9131H16.1697V45.2578C17.3306 45.2035 18.2768 44.7974 19.0082 44.0388C19.7383 43.2821 20.1043 42.3384 20.1043 41.2046C20.1043 40.6886 20.0161 40.2116 19.8407 39.7678C19.6674 39.3253 19.4168 38.9432 19.0915 38.6229ZM15.1945 37.1126C14.4384 36.8898 13.9021 36.5886 13.5873 36.2127C13.2707 35.8375 13.1127 35.3708 13.1127 34.8135C13.1127 34.2506 13.2972 33.7612 13.6694 33.3508C14.0409 32.9372 14.5495 32.6829 15.1945 32.5854V37.1126ZM17.7688 43.0673C17.3485 43.542 16.8165 43.816 16.1709 43.8944V38.9136C17.0603 39.1987 17.654 39.5203 17.9527 39.8814C18.2515 40.2418 18.4002 40.7195 18.4002 41.3139C18.3996 42.01 18.1898 42.5945 17.7688 43.0673Z" fill="url(#paint3_linear_47_3)"/>
    <path d="M47.7665 19.8204C49.3344 19.8204 50.5712 20.2086 51.4768 20.9849C52.3828 21.7613 52.8356 22.8802 52.8356 24.3415C52.8356 25.7571 52.3863 26.8646 51.4881 27.6637C50.59 28.4629 49.3497 28.8625 47.7665 28.8625H44.1588V35.9865H41.9668V19.8204H47.7665ZM47.1271 26.9445C48.2688 26.9445 49.1174 26.7352 49.6731 26.3165C50.2288 25.898 50.5064 25.2396 50.5064 24.3415C50.5064 22.6061 49.3801 21.7384 47.1271 21.7384H44.1588V26.9445H47.1271ZM57.6988 19.8204V33.9315H65.1199V35.9865H55.5072V19.8204H57.6988ZM74.4129 19.8204L81.3317 35.9865H78.7744L77.1533 31.9907H69.4581L67.8598 35.9865H65.3025L72.4266 19.8204H74.4129ZM70.2345 30.0727H76.3542L73.3401 22.6518H73.2941L70.2345 30.0727ZM81.4 19.8204L85.807 26.9217L90.3511 19.8204H93.0222L86.9031 29.0908V35.9865H84.711V29.0908L78.5918 19.8204H81.4ZM111.381 19.8204V21.8754H103.412V26.9445H110.832V28.9995H103.412V35.9865H101.22V19.8204H111.381ZM121.747 19.4094C124.152 19.4094 126.157 20.2086 127.764 21.807C129.369 23.4053 130.173 25.4375 130.173 27.9035C130.173 29.4714 129.815 30.9061 129.099 32.2076C128.384 33.5091 127.375 34.5328 126.074 35.2787C124.772 36.0247 123.33 36.3976 121.747 36.3976C120.179 36.3976 118.748 36.0284 117.454 35.2901C116.16 34.5519 115.148 33.532 114.417 32.2304C113.687 30.9289 113.321 29.4866 113.321 27.9035C113.321 25.4984 114.109 23.4813 115.685 21.8526C117.26 20.2239 119.281 19.4094 121.747 19.4094ZM115.651 27.9035C115.651 29.7302 116.221 31.26 117.363 32.493C118.505 33.726 119.966 34.3425 121.747 34.3425C123.498 34.3425 124.951 33.7336 126.108 32.5159C127.265 31.2981 127.843 29.7606 127.843 27.9035C127.843 26.0617 127.273 24.528 126.131 23.3025C124.989 22.0771 123.52 21.4645 121.724 21.4645C119.989 21.4645 118.543 22.0734 117.386 23.2911C116.229 24.5089 115.651 26.0465 115.651 27.9035ZM139.123 19.8204C140.706 19.8204 141.947 20.2162 142.845 21.0078C143.743 21.7993 144.192 22.9106 144.192 24.3415C144.192 25.4223 143.823 26.366 143.085 27.1728C142.347 27.9796 141.399 28.4591 140.242 28.6113H140.219L144.809 35.9865H142.069L137.959 28.8625H135.515V35.9865H133.324V19.8204H139.123ZM138.484 26.9445C139.625 26.9445 140.474 26.7352 141.03 26.3165C141.585 25.898 141.863 25.2396 141.863 24.3415C141.863 22.6061 140.737 21.7384 138.484 21.7384H135.515V26.9445H138.484ZM162.505 22.7888L158.6 35.9865H156.294L151.567 19.8204H153.851L157.413 32.7442H157.458L161.272 19.8204H163.783L167.597 32.7442H167.642L171.204 19.8204H173.488L168.784 35.9865H166.478L162.55 22.7888H162.505ZM177.78 19.8204V35.9865H175.588V19.8204H177.78ZM184.813 19.8204L193.718 33.1095H193.763V19.8204H195.956V35.9865H193.17L184.174 22.6975H184.128V35.9865H181.936V19.8204H184.813Z" fill="white"/>
    </g>
    <defs>
    <linearGradient id="paint0_linear_47_3" x1="9.37695" y1="23.2463" x2="23.5747" y2="11.3521" gradientUnits="userSpaceOnUse">
    <stop stop-color="#FFF7AE"/>
    <stop offset="0.17" stop-color="#FFFACF"/>
    <stop offset="0.37" stop-color="#9B6326"/>
    <stop offset="0.38" stop-color="#FFF7AE"/>
    <stop offset="0.53" stop-color="#D3C175"/>
    <stop offset="0.69" stop-color="#FCEEC4"/>
    <stop offset="0.7" stop-color="#B78626"/>
    <stop offset="0.82" stop-color="#FFFACF"/>
    <stop offset="1" stop-color="#9B6326"/>
    </linearGradient>
    <linearGradient id="paint1_linear_47_3" x1="5.1596e-07" y1="28.622" x2="20.5084" y2="19.9657" gradientUnits="userSpaceOnUse">
    <stop stop-color="#FFF7AE"/>
    <stop offset="0.17" stop-color="#FFFACF"/>
    <stop offset="0.37" stop-color="#9B6326"/>
    <stop offset="0.38" stop-color="#FFF7AE"/>
    <stop offset="0.53" stop-color="#D3C175"/>
    <stop offset="0.69" stop-color="#FCEEC4"/>
    <stop offset="0.7" stop-color="#B78626"/>
    <stop offset="0.82" stop-color="#FFFACF"/>
    <stop offset="1" stop-color="#9B6326"/>
    </linearGradient>
    <linearGradient id="paint2_linear_47_3" x1="1.44531" y1="52.4263" x2="29.2353" y2="24.2602" gradientUnits="userSpaceOnUse">
    <stop stop-color="#FFF7AE"/>
    <stop offset="0.17" stop-color="#FFFACF"/>
    <stop offset="0.37" stop-color="#9B6326"/>
    <stop offset="0.38" stop-color="#FFF7AE"/>
    <stop offset="0.53" stop-color="#D3C175"/>
    <stop offset="0.69" stop-color="#FCEEC4"/>
    <stop offset="0.7" stop-color="#B78626"/>
    <stop offset="0.82" stop-color="#FFFACF"/>
    <stop offset="1" stop-color="#9B6326"/>
    </linearGradient>
    <linearGradient id="paint3_linear_47_3" x1="11.166" y1="46.9131" x2="24.9764" y2="39.4193" gradientUnits="userSpaceOnUse">
    <stop stop-color="#FFF7AE"/>
    <stop offset="0.17" stop-color="#FFFACF"/>
    <stop offset="0.37" stop-color="#9B6326"/>
    <stop offset="0.38" stop-color="#FFF7AE"/>
    <stop offset="0.53" stop-color="#D3C175"/>
    <stop offset="0.69" stop-color="#FCEEC4"/>
    <stop offset="0.7" stop-color="#B78626"/>
    <stop offset="0.82" stop-color="#FFFACF"/>
    <stop offset="1" stop-color="#9B6326"/>
    </linearGradient>
    </defs>
    </svg>
    