<svg width="242" height="53" viewBox="0 0 242 53" fill="none" xmlns="http://www.w3.org/2000/svg">
    <path d="M12.7956 19.287V23.2463C13.6838 23.0926 14.5966 23.0074 15.5292 23.0074C16.2748 23.0074 17.0068 23.0624 17.7252 23.1617V19.287H21.458L18.4381 14.0556L15.4169 8.82544L12.3982 14.0556L9.37695 19.287H12.7956Z" fill="url(#paint0_linear_64_18)"/>
    <path d="M3.41991 28.622C4.77157 27.0148 6.44851 25.6842 8.34764 24.7207V10.4622H12.0811L9.0605 5.23141L6.03992 0L3.02119 5.23141L0 10.4622H3.41991V28.622Z" fill="url(#paint1_linear_64_18)"/>
    <path d="M15.5292 24.6335C7.75187 24.6335 1.44531 30.8549 1.44531 38.5298C1.44531 46.2053 7.75246 52.4263 15.5292 52.4263C23.309 52.4263 29.6137 46.2053 29.6137 38.5298C29.6137 30.8549 23.309 24.6335 15.5292 24.6335ZM15.5292 49.4678C9.40719 49.4678 4.44429 44.5703 4.44429 38.5298C4.44429 32.4893 9.40719 27.5912 15.5292 27.5912C21.6537 27.5912 26.6166 32.4886 26.6166 38.5298C26.6166 44.5709 21.6537 49.4678 15.5292 49.4678Z" fill="url(#paint2_linear_64_18)"/>
    <path d="M19.0915 38.6229C18.7656 38.3013 18.3447 38.0285 17.8281 37.8045C17.5577 37.6884 17.0053 37.5273 16.1703 37.3218V32.6045C16.711 32.7132 17.1356 32.9391 17.4448 33.281C17.7565 33.6229 17.9589 34.1173 18.0577 34.7586L19.7729 34.5031C19.6253 33.4668 19.1896 32.6527 18.4644 32.0577C17.8984 31.5911 17.1337 31.314 16.1697 31.222V30.4407H15.1932V31.222C14.0934 31.3306 13.2645 31.63 12.7053 32.1126C11.8696 32.8336 11.453 33.776 11.453 34.94C11.453 35.5949 11.5943 36.18 11.8808 36.6948C12.1665 37.2088 12.5726 37.6131 13.1022 37.9038C13.8138 38.2976 14.5113 38.5581 15.1939 38.6858V43.8937C14.5421 43.8283 13.9835 43.5037 13.5157 42.9223C13.191 42.5094 12.9639 41.8644 12.8343 40.9849L11.166 41.2941C11.2284 42.1422 11.4481 42.8599 11.8246 43.4488C12.2035 44.0364 12.6516 44.4628 13.1713 44.727C13.6897 44.9893 14.3637 45.1732 15.1932 45.2763V46.9131H16.1697V45.2578C17.3306 45.2035 18.2768 44.7974 19.0082 44.0388C19.7383 43.2821 20.1043 42.3384 20.1043 41.2046C20.1043 40.6886 20.0161 40.2116 19.8407 39.7678C19.6674 39.3253 19.4168 38.9432 19.0915 38.6229ZM15.1945 37.1126C14.4384 36.8898 13.9021 36.5886 13.5873 36.2127C13.2707 35.8375 13.1127 35.3708 13.1127 34.8135C13.1127 34.2506 13.2972 33.7612 13.6694 33.3508C14.0409 32.9372 14.5495 32.6829 15.1945 32.5854V37.1126ZM17.7688 43.0673C17.3485 43.542 16.8165 43.816 16.1709 43.8944V38.9136C17.0603 39.1987 17.654 39.5203 17.9527 39.8814C18.2515 40.2418 18.4002 40.7195 18.4002 41.3139C18.3996 42.01 18.1898 42.5945 17.7688 43.0673Z" fill="url(#paint3_linear_64_18)"/>
    <path d="M55.3434 23.0597C55.1786 22.5426 54.957 22.0795 54.6786 21.6705C54.4059 21.2557 54.0792 20.9034 53.6985 20.6136C53.3178 20.3182 52.8832 20.0937 52.3945 19.9403C51.9116 19.7869 51.3803 19.7102 50.8008 19.7102C49.8178 19.7102 48.9315 19.9631 48.1417 20.4688C47.3519 20.9744 46.7269 21.7159 46.2667 22.6932C45.8121 23.6648 45.5849 24.8551 45.5849 26.2642C45.5849 27.679 45.815 28.875 46.2752 29.8523C46.7354 30.8295 47.3661 31.571 48.1673 32.0767C48.9684 32.5824 49.8803 32.8352 50.9031 32.8352C51.8519 32.8352 52.6786 32.642 53.3832 32.2557C54.0934 31.8693 54.6417 31.3239 55.0281 30.6193C55.4201 29.9091 55.6161 29.0739 55.6161 28.1136L56.2979 28.2415H51.3036V26.0682H58.1644V28.054C58.1644 29.5199 57.8519 30.7926 57.2269 31.8722C56.6076 32.946 55.7496 33.7756 54.6531 34.3608C53.5621 34.946 52.3121 35.2386 50.9031 35.2386C49.3235 35.2386 47.9371 34.875 46.744 34.1477C45.5565 33.4205 44.6303 32.3892 43.9656 31.054C43.3008 29.7131 42.9684 28.1222 42.9684 26.2812C42.9684 24.8892 43.1616 23.6392 43.5479 22.5312C43.9343 21.4233 44.4769 20.483 45.1758 19.7102C45.8803 18.9318 46.707 18.3381 47.6559 17.929C48.6104 17.5142 49.6531 17.3068 50.7837 17.3068C51.7269 17.3068 52.6048 17.446 53.4173 17.7244C54.2354 18.0028 54.9627 18.3977 55.5991 18.9091C56.2411 19.4205 56.7724 20.0284 57.1928 20.733C57.6133 21.4318 57.8974 22.2074 58.0451 23.0597H55.3434ZM61.5075 35V17.5455H64.141V32.733H72.0501V35H61.5075ZM89.5366 26.2727C89.5366 28.1364 89.1957 29.7386 88.5139 31.0795C87.832 32.4148 86.8974 33.4432 85.7099 34.1648C84.5281 34.8807 83.1843 35.2386 81.6786 35.2386C80.1673 35.2386 78.8178 34.8807 77.6303 34.1648C76.4485 33.4432 75.5167 32.4119 74.8349 31.071C74.1531 29.7301 73.8121 28.1307 73.8121 26.2727C73.8121 24.4091 74.1531 22.8097 74.8349 21.4744C75.5167 20.1335 76.4485 19.1051 77.6303 18.3892C78.8178 17.6676 80.1673 17.3068 81.6786 17.3068C83.1843 17.3068 84.5281 17.6676 85.7099 18.3892C86.8974 19.1051 87.832 20.1335 88.5139 21.4744C89.1957 22.8097 89.5366 24.4091 89.5366 26.2727ZM86.9286 26.2727C86.9286 24.8523 86.6985 23.6562 86.2383 22.6847C85.7837 21.7074 85.1587 20.9688 84.3633 20.4688C83.5735 19.9631 82.6786 19.7102 81.6786 19.7102C80.6729 19.7102 79.7752 19.9631 78.9854 20.4688C78.1957 20.9688 77.5707 21.7074 77.1104 22.6847C76.6559 23.6562 76.4286 24.8523 76.4286 26.2727C76.4286 27.6932 76.6559 28.892 77.1104 29.8693C77.5707 30.8409 78.1957 31.5795 78.9854 32.0852C79.7752 32.5852 80.6729 32.8352 81.6786 32.8352C82.6786 32.8352 83.5735 32.5852 84.3633 32.0852C85.1587 31.5795 85.7837 30.8409 86.2383 29.8693C86.6985 28.892 86.9286 27.6932 86.9286 26.2727ZM92.82 35V17.5455H99.212C100.451 17.5455 101.476 17.75 102.289 18.1591C103.101 18.5625 103.709 19.1108 104.113 19.804C104.516 20.4915 104.718 21.267 104.718 22.1307C104.718 22.858 104.584 23.4716 104.317 23.9716C104.05 24.4659 103.692 24.8636 103.243 25.1648C102.8 25.4602 102.311 25.6761 101.777 25.8125V25.983C102.357 26.0114 102.922 26.1989 103.473 26.5455C104.03 26.8864 104.49 27.3722 104.854 28.0028C105.218 28.6335 105.4 29.4006 105.4 30.304C105.4 31.196 105.189 31.9972 104.769 32.7074C104.354 33.4119 103.712 33.9716 102.843 34.3864C101.973 34.7955 100.863 35 99.5103 35H92.82ZM95.4535 32.7415H99.2546C100.516 32.7415 101.419 32.4972 101.965 32.0085C102.51 31.5199 102.783 30.9091 102.783 30.1761C102.783 29.625 102.644 29.1193 102.365 28.6591C102.087 28.1989 101.689 27.8324 101.172 27.5597C100.661 27.2869 100.053 27.1506 99.3484 27.1506H95.4535V32.7415ZM95.4535 25.0966H98.9819C99.5728 25.0966 100.104 24.983 100.576 24.7557C101.053 24.5284 101.431 24.2102 101.709 23.8011C101.993 23.3864 102.135 22.8977 102.135 22.3352C102.135 21.6136 101.882 21.0085 101.377 20.5199C100.871 20.0312 100.096 19.7869 99.0501 19.7869H95.4535V25.0966ZM109.998 35H107.202L113.483 17.5455H116.526L122.807 35H120.012L115.077 20.7159H114.941L109.998 35ZM110.466 28.1648H119.534V30.3807H110.466V28.1648ZM125.328 35V17.5455H127.961V32.733H135.87V35H125.328ZM159.723 23.2216H157.064C156.962 22.6534 156.772 22.1534 156.493 21.7216C156.215 21.2898 155.874 20.9233 155.471 20.6222C155.067 20.321 154.615 20.0937 154.115 19.9403C153.621 19.7869 153.096 19.7102 152.539 19.7102C151.533 19.7102 150.632 19.9631 149.837 20.4688C149.047 20.9744 148.422 21.7159 147.962 22.6932C147.507 23.6705 147.28 24.8636 147.28 26.2727C147.28 27.6932 147.507 28.892 147.962 29.8693C148.422 30.8466 149.05 31.5852 149.846 32.0852C150.641 32.5852 151.536 32.8352 152.53 32.8352C153.081 32.8352 153.604 32.7614 154.098 32.6136C154.598 32.4602 155.05 32.2358 155.453 31.9403C155.857 31.6449 156.198 31.2841 156.476 30.858C156.76 30.4261 156.956 29.9318 157.064 29.375L159.723 29.3835C159.581 30.2415 159.306 31.0312 158.897 31.7528C158.493 32.4688 157.973 33.0881 157.337 33.6108C156.706 34.1278 155.985 34.5284 155.172 34.8125C154.36 35.0966 153.473 35.2386 152.513 35.2386C151.002 35.2386 149.655 34.8807 148.473 34.1648C147.292 33.4432 146.36 32.4119 145.678 31.071C145.002 29.7301 144.664 28.1307 144.664 26.2727C144.664 24.4091 145.005 22.8097 145.686 21.4744C146.368 20.1335 147.3 19.1051 148.482 18.3892C149.664 17.6676 151.007 17.3068 152.513 17.3068C153.439 17.3068 154.303 17.4403 155.104 17.7074C155.911 17.9687 156.635 18.3551 157.277 18.8665C157.919 19.3722 158.451 19.9915 158.871 20.7244C159.292 21.4517 159.576 22.2841 159.723 23.2216ZM162.875 35V17.5455H169.096C170.449 17.5455 171.571 17.7784 172.463 18.2443C173.36 18.7102 174.031 19.3551 174.474 20.179C174.917 20.9972 175.139 21.9432 175.139 23.017C175.139 24.0852 174.914 25.0256 174.466 25.8381C174.022 26.6449 173.352 27.2727 172.454 27.7216C171.562 28.1705 170.44 28.3949 169.088 28.3949H164.375V26.1278H168.849C169.701 26.1278 170.395 26.0057 170.929 25.7614C171.468 25.517 171.863 25.1619 172.113 24.696C172.363 24.2301 172.488 23.6705 172.488 23.017C172.488 22.358 172.36 21.7869 172.105 21.304C171.855 20.821 171.46 20.4517 170.92 20.196C170.386 19.9347 169.684 19.804 168.815 19.804H165.508V35H162.875ZM171.491 27.125L175.804 35H172.804L168.576 27.125H171.491ZM176.364 17.5455H179.355L183.915 25.4801H184.103L188.662 17.5455H191.654L185.321 28.1477V35H182.696V28.1477L176.364 17.5455ZM194.14 35V17.5455H200.362C201.72 17.5455 202.845 17.7926 203.737 18.2869C204.629 18.7812 205.297 19.4574 205.74 20.3153C206.183 21.1676 206.404 22.1278 206.404 23.196C206.404 24.2699 206.18 25.2358 205.731 26.0938C205.288 26.946 204.618 27.6222 203.72 28.1222C202.828 28.6165 201.706 28.8636 200.353 28.8636H196.075V26.6307H200.115C200.973 26.6307 201.669 26.483 202.203 26.1875C202.737 25.8864 203.129 25.4773 203.379 24.9602C203.629 24.4432 203.754 23.8551 203.754 23.196C203.754 22.5369 203.629 21.9517 203.379 21.4403C203.129 20.929 202.734 20.5284 202.194 20.2386C201.66 19.9489 200.956 19.804 200.081 19.804H196.774V35H194.14ZM208.631 19.8125V17.5455H222.14V19.8125H216.694V35H214.069V19.8125H208.631ZM239.537 26.2727C239.537 28.1364 239.196 29.7386 238.514 31.0795C237.832 32.4148 236.897 33.4432 235.71 34.1648C234.528 34.8807 233.184 35.2386 231.679 35.2386C230.167 35.2386 228.818 34.8807 227.63 34.1648C226.449 33.4432 225.517 32.4119 224.835 31.071C224.153 29.7301 223.812 28.1307 223.812 26.2727C223.812 24.4091 224.153 22.8097 224.835 21.4744C225.517 20.1335 226.449 19.1051 227.63 18.3892C228.818 17.6676 230.167 17.3068 231.679 17.3068C233.184 17.3068 234.528 17.6676 235.71 18.3892C236.897 19.1051 237.832 20.1335 238.514 21.4744C239.196 22.8097 239.537 24.4091 239.537 26.2727ZM236.929 26.2727C236.929 24.8523 236.699 23.6562 236.238 22.6847C235.784 21.7074 235.159 20.9688 234.363 20.4688C233.574 19.9631 232.679 19.7102 231.679 19.7102C230.673 19.7102 229.775 19.9631 228.985 20.4688C228.196 20.9688 227.571 21.7074 227.11 22.6847C226.656 23.6562 226.429 24.8523 226.429 26.2727C226.429 27.6932 226.656 28.892 227.11 29.8693C227.571 30.8409 228.196 31.5795 228.985 32.0852C229.775 32.5852 230.673 32.8352 231.679 32.8352C232.679 32.8352 233.574 32.5852 234.363 32.0852C235.159 31.5795 235.784 30.8409 236.238 29.8693C236.699 28.892 236.929 27.6932 236.929 26.2727Z" fill="white"/>
    <defs>
    <linearGradient id="paint0_linear_64_18" x1="9.37695" y1="23.2463" x2="23.5747" y2="11.3521" gradientUnits="userSpaceOnUse">
    <stop stop-color="#FFF7AE"/>
    <stop offset="0.17" stop-color="#FFFACF"/>
    <stop offset="0.37" stop-color="#9B6326"/>
    <stop offset="0.38" stop-color="#FFF7AE"/>
    <stop offset="0.53" stop-color="#D3C175"/>
    <stop offset="0.69" stop-color="#FCEEC4"/>
    <stop offset="0.7" stop-color="#B78626"/>
    <stop offset="0.82" stop-color="#FFFACF"/>
    <stop offset="1" stop-color="#9B6326"/>
    </linearGradient>
    <linearGradient id="paint1_linear_64_18" x1="5.1596e-07" y1="28.622" x2="20.5084" y2="19.9657" gradientUnits="userSpaceOnUse">
    <stop stop-color="#FFF7AE"/>
    <stop offset="0.17" stop-color="#FFFACF"/>
    <stop offset="0.37" stop-color="#9B6326"/>
    <stop offset="0.38" stop-color="#FFF7AE"/>
    <stop offset="0.53" stop-color="#D3C175"/>
    <stop offset="0.69" stop-color="#FCEEC4"/>
    <stop offset="0.7" stop-color="#B78626"/>
    <stop offset="0.82" stop-color="#FFFACF"/>
    <stop offset="1" stop-color="#9B6326"/>
    </linearGradient>
    <linearGradient id="paint2_linear_64_18" x1="1.44531" y1="52.4263" x2="29.2353" y2="24.2602" gradientUnits="userSpaceOnUse">
    <stop stop-color="#FFF7AE"/>
    <stop offset="0.17" stop-color="#FFFACF"/>
    <stop offset="0.37" stop-color="#9B6326"/>
    <stop offset="0.38" stop-color="#FFF7AE"/>
    <stop offset="0.53" stop-color="#D3C175"/>
    <stop offset="0.69" stop-color="#FCEEC4"/>
    <stop offset="0.7" stop-color="#B78626"/>
    <stop offset="0.82" stop-color="#FFFACF"/>
    <stop offset="1" stop-color="#9B6326"/>
    </linearGradient>
    <linearGradient id="paint3_linear_64_18" x1="11.166" y1="46.9131" x2="24.9764" y2="39.4193" gradientUnits="userSpaceOnUse">
    <stop stop-color="#FFF7AE"/>
    <stop offset="0.17" stop-color="#FFFACF"/>
    <stop offset="0.37" stop-color="#9B6326"/>
    <stop offset="0.38" stop-color="#FFF7AE"/>
    <stop offset="0.53" stop-color="#D3C175"/>
    <stop offset="0.69" stop-color="#FCEEC4"/>
    <stop offset="0.7" stop-color="#B78626"/>
    <stop offset="0.82" stop-color="#FFFACF"/>
    <stop offset="1" stop-color="#9B6326"/>
    </linearGradient>
    </defs>
    </svg>
    