<svg width="245" height="53" viewBox="0 0 245 53" fill="none" xmlns="http://www.w3.org/2000/svg">
    <path d="M12.7956 19.287V23.2463C13.6838 23.0926 14.5966 23.0074 15.5292 23.0074C16.2748 23.0074 17.0068 23.0624 17.7252 23.1617V19.287H21.458L18.4381 14.0556L15.4169 8.82544L12.3982 14.0556L9.37695 19.287H12.7956Z" fill="url(#paint0_linear_64_18)"/>
    <path d="M3.41991 28.622C4.77157 27.0148 6.44851 25.6842 8.34764 24.7207V10.4622H12.0811L9.0605 5.23141L6.03992 0L3.02119 5.23141L0 10.4622H3.41991V28.622Z" fill="url(#paint1_linear_64_18)"/>
    <path d="M15.5292 24.6335C7.75187 24.6335 1.44531 30.8549 1.44531 38.5298C1.44531 46.2053 7.75246 52.4263 15.5292 52.4263C23.309 52.4263 29.6137 46.2053 29.6137 38.5298C29.6137 30.8549 23.309 24.6335 15.5292 24.6335ZM15.5292 49.4678C9.40719 49.4678 4.44429 44.5703 4.44429 38.5298C4.44429 32.4893 9.40719 27.5912 15.5292 27.5912C21.6537 27.5912 26.6166 32.4886 26.6166 38.5298C26.6166 44.5709 21.6537 49.4678 15.5292 49.4678Z" fill="url(#paint2_linear_64_18)"/>
    <path d="M19.0915 38.6229C18.7656 38.3013 18.3447 38.0285 17.8281 37.8045C17.5577 37.6884 17.0053 37.5273 16.1703 37.3218V32.6045C16.711 32.7132 17.1356 32.9391 17.4448 33.281C17.7565 33.6229 17.9589 34.1173 18.0577 34.7586L19.7729 34.5031C19.6253 33.4668 19.1896 32.6527 18.4644 32.0577C17.8984 31.5911 17.1337 31.314 16.1697 31.222V30.4407H15.1932V31.222C14.0934 31.3306 13.2645 31.63 12.7053 32.1126C11.8696 32.8336 11.453 33.776 11.453 34.94C11.453 35.5949 11.5943 36.18 11.8808 36.6948C12.1665 37.2088 12.5726 37.6131 13.1022 37.9038C13.8138 38.2976 14.5113 38.5581 15.1939 38.6858V43.8937C14.5421 43.8283 13.9835 43.5037 13.5157 42.9223C13.191 42.5094 12.9639 41.8644 12.8343 40.9849L11.166 41.2941C11.2284 42.1422 11.4481 42.8599 11.8246 43.4488C12.2035 44.0364 12.6516 44.4628 13.1713 44.727C13.6897 44.9893 14.3637 45.1732 15.1932 45.2763V46.9131H16.1697V45.2578C17.3306 45.2035 18.2768 44.7974 19.0082 44.0388C19.7383 43.2821 20.1043 42.3384 20.1043 41.2046C20.1043 40.6886 20.0161 40.2116 19.8407 39.7678C19.6674 39.3253 19.4168 38.9432 19.0915 38.6229ZM15.1945 37.1126C14.4384 36.8898 13.9021 36.5886 13.5873 36.2127C13.2707 35.8375 13.1127 35.3708 13.1127 34.8135C13.1127 34.2506 13.2972 33.7612 13.6694 33.3508C14.0409 32.9372 14.5495 32.6829 15.1945 32.5854V37.1126ZM17.7688 43.0673C17.3485 43.542 16.8165 43.816 16.1709 43.8944V38.9136C17.0603 39.1987 17.654 39.5203 17.9527 39.8814C18.2515 40.2418 18.4002 40.7195 18.4002 41.3139C18.3996 42.01 18.1898 42.5945 17.7688 43.0673Z" fill="url(#paint3_linear_64_18)"/>
    <path d="M54.7042 23.1875C54.5849 22.7727 54.4173 22.4062 54.2014 22.0881C53.9854 21.7642 53.7212 21.4915 53.4087 21.2699C53.1019 21.0426 52.7496 20.8693 52.3519 20.75C51.9599 20.6307 51.5252 20.571 51.0479 20.571C50.1559 20.571 49.3718 20.7926 48.6957 21.2358C48.0252 21.679 47.5025 22.3239 47.1275 23.1705C46.7525 24.0114 46.565 25.0398 46.565 26.2557C46.565 27.4716 46.7496 28.5057 47.119 29.358C47.4883 30.2102 48.011 30.8608 48.6871 31.3097C49.3633 31.7528 50.1616 31.9744 51.082 31.9744C51.9173 31.9744 52.6303 31.8267 53.2212 31.5312C53.8178 31.2301 54.2724 30.8068 54.5849 30.2614C54.9031 29.7159 55.0621 29.071 55.0621 28.3267L55.8121 28.4375H51.3121V25.6591H58.6161V27.858C58.6161 29.392 58.2923 30.7102 57.6445 31.8125C56.9968 32.9091 56.1048 33.7557 54.9684 34.3523C53.832 34.9432 52.5309 35.2386 51.065 35.2386C49.4286 35.2386 47.9911 34.8778 46.7525 34.1562C45.5138 33.429 44.5479 32.3977 43.8548 31.0625C43.1673 29.7216 42.8235 28.1307 42.8235 26.2898C42.8235 24.875 43.0281 23.6136 43.4371 22.5057C43.8519 21.392 44.4315 20.4489 45.1758 19.6761C45.9201 18.9034 46.7866 18.3153 47.7752 17.9119C48.7638 17.5085 49.8349 17.3068 50.9883 17.3068C51.9769 17.3068 52.8974 17.4517 53.7496 17.7415C54.6019 18.0256 55.3576 18.429 56.0167 18.9517C56.6815 19.4744 57.2241 20.0966 57.6445 20.8182C58.065 21.5341 58.3349 22.3239 58.4542 23.1875H54.7042ZM61.3881 35V17.5455H65.0785V31.9574H72.5614V35H61.3881ZM90.3654 26.2727C90.3654 28.1761 90.0046 29.7955 89.283 31.1307C88.5671 32.4659 87.5898 33.4858 86.3512 34.1903C85.1183 34.8892 83.7319 35.2386 82.1921 35.2386C80.641 35.2386 79.2489 34.8864 78.016 34.1818C76.783 33.4773 75.8086 32.4574 75.0927 31.1222C74.3768 29.7869 74.0188 28.1705 74.0188 26.2727C74.0188 24.3693 74.3768 22.75 75.0927 21.4148C75.8086 20.0795 76.783 19.0625 78.016 18.3636C79.2489 17.6591 80.641 17.3068 82.1921 17.3068C83.7319 17.3068 85.1183 17.6591 86.3512 18.3636C87.5898 19.0625 88.5671 20.0795 89.283 21.4148C90.0046 22.75 90.3654 24.3693 90.3654 26.2727ZM86.6239 26.2727C86.6239 25.0398 86.4393 24 86.07 23.1534C85.7063 22.3068 85.1921 21.6648 84.5273 21.2273C83.8626 20.7898 83.0842 20.571 82.1921 20.571C81.3001 20.571 80.5217 20.7898 79.8569 21.2273C79.1921 21.6648 78.6751 22.3068 78.3058 23.1534C77.9421 24 77.7603 25.0398 77.7603 26.2727C77.7603 27.5057 77.9421 28.5455 78.3058 29.392C78.6751 30.2386 79.1921 30.8807 79.8569 31.3182C80.5217 31.7557 81.3001 31.9744 82.1921 31.9744C83.0842 31.9744 83.8626 31.7557 84.5273 31.3182C85.1921 30.8807 85.7063 30.2386 86.07 29.392C86.4393 28.5455 86.6239 27.5057 86.6239 26.2727ZM93.0991 35V17.5455H100.088C101.372 17.5455 102.443 17.7358 103.301 18.1165C104.159 18.4972 104.804 19.0256 105.235 19.7017C105.667 20.3722 105.883 21.1449 105.883 22.0199C105.883 22.7017 105.747 23.3011 105.474 23.8182C105.201 24.3295 104.826 24.75 104.349 25.0795C103.877 25.4034 103.338 25.6335 102.73 25.7699V25.9403C103.395 25.9687 104.017 26.1562 104.596 26.5028C105.181 26.8494 105.656 27.3352 106.02 27.9602C106.383 28.5795 106.565 29.3182 106.565 30.1761C106.565 31.1023 106.335 31.929 105.875 32.6562C105.42 33.3778 104.747 33.9489 103.855 34.3693C102.963 34.7898 101.863 35 100.556 35H93.0991ZM96.7894 31.983H99.7979C100.826 31.983 101.576 31.7869 102.048 31.3949C102.52 30.9972 102.755 30.4687 102.755 29.8097C102.755 29.3267 102.639 28.9006 102.406 28.5312C102.173 28.1619 101.841 27.8722 101.409 27.6619C100.983 27.4517 100.474 27.3466 99.8832 27.3466H96.7894V31.983ZM96.7894 24.8494H99.5252C100.031 24.8494 100.48 24.7614 100.872 24.5852C101.27 24.4034 101.582 24.1477 101.809 23.8182C102.042 23.4886 102.159 23.0938 102.159 22.6335C102.159 22.0028 101.934 21.4943 101.485 21.108C101.042 20.7216 100.412 20.5284 99.5934 20.5284H96.7894V24.8494ZM111.975 35H108.02L114.046 17.5455H118.801L124.819 35H120.864L116.492 21.5341H116.355L111.975 35ZM111.728 28.1392H121.069V31.0199H111.728V28.1392ZM126.919 35V17.5455H130.61V31.9574H138.093V35H126.919ZM161.492 23.6562H157.759C157.691 23.1733 157.551 22.7443 157.341 22.3693C157.131 21.9886 156.861 21.6648 156.532 21.3977C156.202 21.1307 155.821 20.9261 155.39 20.7841C154.963 20.642 154.5 20.571 154 20.571C153.097 20.571 152.31 20.7955 151.64 21.2443C150.969 21.6875 150.449 22.3352 150.08 23.1875C149.711 24.0341 149.526 25.0625 149.526 26.2727C149.526 27.517 149.711 28.5625 150.08 29.4091C150.455 30.2557 150.978 30.8949 151.648 31.3267C152.319 31.7585 153.094 31.9744 153.975 31.9744C154.469 31.9744 154.926 31.9091 155.347 31.7784C155.773 31.6477 156.151 31.4574 156.48 31.2074C156.81 30.9517 157.083 30.642 157.299 30.2784C157.52 29.9148 157.674 29.5 157.759 29.0341L161.492 29.0511C161.395 29.8523 161.154 30.625 160.767 31.3693C160.387 32.108 159.873 32.7699 159.225 33.3551C158.583 33.9347 157.816 34.3949 156.924 34.7358C156.037 35.071 155.034 35.2386 153.915 35.2386C152.358 35.2386 150.966 34.8864 149.739 34.1818C148.517 33.4773 147.551 32.4574 146.841 31.1222C146.137 29.7869 145.784 28.1705 145.784 26.2727C145.784 24.3693 146.142 22.75 146.858 21.4148C147.574 20.0795 148.546 19.0625 149.773 18.3636C151 17.6591 152.381 17.3068 153.915 17.3068C154.926 17.3068 155.864 17.4489 156.728 17.733C157.597 18.017 158.367 18.4318 159.037 18.9773C159.708 19.517 160.253 20.179 160.674 20.9631C161.1 21.7472 161.373 22.6449 161.492 23.6562ZM164.138 35V17.5455H171.025C172.343 17.5455 173.468 17.7812 174.4 18.2528C175.337 18.7187 176.05 19.3807 176.539 20.2386C177.033 21.0909 177.28 22.0937 177.28 23.2472C177.28 24.4062 177.03 25.4034 176.53 26.2386C176.03 27.0682 175.306 27.7045 174.357 28.1477C173.414 28.5909 172.272 28.8125 170.931 28.8125H166.32V25.8466H170.334C171.039 25.8466 171.624 25.75 172.09 25.5568C172.556 25.3636 172.902 25.0739 173.13 24.6875C173.363 24.3011 173.479 23.821 173.479 23.2472C173.479 22.6676 173.363 22.179 173.13 21.7812C172.902 21.3835 172.553 21.0824 172.081 20.8778C171.615 20.6676 171.027 20.5625 170.317 20.5625H167.828V35H164.138ZM173.564 27.0568L177.902 35H173.828L169.584 27.0568H173.564ZM178.139 17.5455H182.272L186.252 25.0625H186.423L190.403 17.5455H194.537L188.17 28.8295V35H184.505V28.8295L178.139 17.5455ZM196.552 35V17.5455H203.439C204.762 17.5455 205.89 17.7983 206.822 18.304C207.754 18.804 208.464 19.5 208.953 20.392C209.447 21.2784 209.694 22.3011 209.694 23.4602C209.694 24.6193 209.444 25.642 208.944 26.5284C208.444 27.4148 207.72 28.1051 206.771 28.5994C205.828 29.0937 204.686 29.3409 203.345 29.3409H198.956V26.3835H202.748C203.458 26.3835 204.044 26.2614 204.504 26.017C204.97 25.767 205.316 25.4233 205.544 24.9858C205.777 24.5426 205.893 24.0341 205.893 23.4602C205.893 22.8807 205.777 22.375 205.544 21.9432C205.316 21.5057 204.97 21.1676 204.504 20.929C204.038 20.6847 203.447 20.5625 202.731 20.5625H200.243V35H196.552ZM211.426 20.5881V17.5455H225.762V20.5881H220.418V35H216.77V20.5881H211.426ZM243.365 26.2727C243.365 28.1761 243.005 29.7955 242.283 31.1307C241.567 32.4659 240.59 33.4858 239.351 34.1903C238.118 34.8892 236.732 35.2386 235.192 35.2386C233.641 35.2386 232.249 34.8864 231.016 34.1818C229.783 33.4773 228.809 32.4574 228.093 31.1222C227.377 29.7869 227.019 28.1705 227.019 26.2727C227.019 24.3693 227.377 22.75 228.093 21.4148C228.809 20.0795 229.783 19.0625 231.016 18.3636C232.249 17.6591 233.641 17.3068 235.192 17.3068C236.732 17.3068 238.118 17.6591 239.351 18.3636C240.59 19.0625 241.567 20.0795 242.283 21.4148C243.005 22.75 243.365 24.3693 243.365 26.2727ZM239.624 26.2727C239.624 25.0398 239.439 24 239.07 23.1534C238.706 22.3068 238.192 21.6648 237.527 21.2273C236.863 20.7898 236.084 20.571 235.192 20.571C234.3 20.571 233.522 20.7898 232.857 21.2273C232.192 21.6648 231.675 22.3068 231.306 23.1534C230.942 24 230.76 25.0398 230.76 26.2727C230.76 27.5057 230.942 28.5455 231.306 29.392C231.675 30.2386 232.192 30.8807 232.857 31.3182C233.522 31.7557 234.3 31.9744 235.192 31.9744C236.084 31.9744 236.863 31.7557 237.527 31.3182C238.192 30.8807 238.706 30.2386 239.07 29.392C239.439 28.5455 239.624 27.5057 239.624 26.2727Z" fill="white"/>
    <defs>
    <linearGradient id="paint0_linear_64_18" x1="9.37695" y1="23.2463" x2="23.5747" y2="11.3521" gradientUnits="userSpaceOnUse">
    <stop stop-color="#FFF7AE"/>
    <stop offset="0.17" stop-color="#FFFACF"/>
    <stop offset="0.37" stop-color="#9B6326"/>
    <stop offset="0.38" stop-color="#FFF7AE"/>
    <stop offset="0.53" stop-color="#D3C175"/>
    <stop offset="0.69" stop-color="#FCEEC4"/>
    <stop offset="0.7" stop-color="#B78626"/>
    <stop offset="0.82" stop-color="#FFFACF"/>
    <stop offset="1" stop-color="#9B6326"/>
    </linearGradient>
    <linearGradient id="paint1_linear_64_18" x1="5.1596e-07" y1="28.622" x2="20.5084" y2="19.9657" gradientUnits="userSpaceOnUse">
    <stop stop-color="#FFF7AE"/>
    <stop offset="0.17" stop-color="#FFFACF"/>
    <stop offset="0.37" stop-color="#9B6326"/>
    <stop offset="0.38" stop-color="#FFF7AE"/>
    <stop offset="0.53" stop-color="#D3C175"/>
    <stop offset="0.69" stop-color="#FCEEC4"/>
    <stop offset="0.7" stop-color="#B78626"/>
    <stop offset="0.82" stop-color="#FFFACF"/>
    <stop offset="1" stop-color="#9B6326"/>
    </linearGradient>
    <linearGradient id="paint2_linear_64_18" x1="1.44531" y1="52.4263" x2="29.2353" y2="24.2602" gradientUnits="userSpaceOnUse">
    <stop stop-color="#FFF7AE"/>
    <stop offset="0.17" stop-color="#FFFACF"/>
    <stop offset="0.37" stop-color="#9B6326"/>
    <stop offset="0.38" stop-color="#FFF7AE"/>
    <stop offset="0.53" stop-color="#D3C175"/>
    <stop offset="0.69" stop-color="#FCEEC4"/>
    <stop offset="0.7" stop-color="#B78626"/>
    <stop offset="0.82" stop-color="#FFFACF"/>
    <stop offset="1" stop-color="#9B6326"/>
    </linearGradient>
    <linearGradient id="paint3_linear_64_18" x1="11.166" y1="46.9131" x2="24.9764" y2="39.4193" gradientUnits="userSpaceOnUse">
    <stop stop-color="#FFF7AE"/>
    <stop offset="0.17" stop-color="#FFFACF"/>
    <stop offset="0.37" stop-color="#9B6326"/>
    <stop offset="0.38" stop-color="#FFF7AE"/>
    <stop offset="0.53" stop-color="#D3C175"/>
    <stop offset="0.69" stop-color="#FCEEC4"/>
    <stop offset="0.7" stop-color="#B78626"/>
    <stop offset="0.82" stop-color="#FFFACF"/>
    <stop offset="1" stop-color="#9B6326"/>
    </linearGradient>
    </defs>
    </svg>
    