<svg width="29" height="29" viewBox="0 0 29 29" fill="none" xmlns="http://www.w3.org/2000/svg">
    <path d="M14.5292 0.633545C6.75187 0.633545 0.445312 6.85492 0.445312 14.5298C0.445312 22.2053 6.75246 28.4263 14.5292 28.4263C22.309 28.4263 28.6137 22.2053 28.6137 14.5298C28.6137 6.85492 22.309 0.633545 14.5292 0.633545ZM14.5292 25.4678C8.40719 25.4678 3.44429 20.5703 3.44429 14.5298C3.44429 8.48927 8.40719 3.59118 14.5292 3.59118C20.6537 3.59118 25.6166 8.48862 25.6166 14.5298C25.6166 20.5709 20.6537 25.4678 14.5292 25.4678Z" fill="url(#paint0_linear_49_51)"/>
    <path d="M18.0915 14.6229C17.7656 14.3013 17.3447 14.0285 16.8281 13.8045C16.5577 13.6884 16.0053 13.5273 15.1703 13.3218V8.60454C15.711 8.71316 16.1356 8.93905 16.4448 9.28099C16.7565 9.62292 16.9589 10.1173 17.0577 10.7586L18.7729 10.5031C18.6253 9.4668 18.1896 8.65269 17.4644 8.0577C16.8984 7.59112 16.1337 7.31401 15.1697 7.22202V6.44067H14.1932V7.22202C13.0934 7.33064 12.2645 7.63001 11.7053 8.11263C10.8696 8.83356 10.453 9.77602 10.453 10.94C10.453 11.5949 10.5943 12.18 10.8808 12.6948C11.1665 13.2088 11.5726 13.6131 12.1022 13.9038C12.8138 14.2976 13.5113 14.5581 14.1939 14.6858V19.8937C13.5421 19.8283 12.9835 19.5037 12.5157 18.9223C12.191 18.5094 11.9639 17.8644 11.8343 16.9849L10.166 17.2941C10.2284 18.1422 10.4481 18.8599 10.8246 19.4488C11.2035 20.0364 11.6516 20.4628 12.1713 20.727C12.6897 20.9893 13.3637 21.1732 14.1932 21.2763V22.9131H15.1697V21.2578C16.3306 21.2035 17.2768 20.7974 18.0082 20.0388C18.7383 19.2821 19.1043 18.3384 19.1043 17.2046C19.1043 16.6886 19.0161 16.2116 18.8407 15.7678C18.6674 15.3253 18.4168 14.9432 18.0915 14.6229ZM14.1945 13.1126C13.4384 12.8898 12.9021 12.5886 12.5873 12.2127C12.2707 11.8375 12.1127 11.3708 12.1127 10.8135C12.1127 10.2506 12.2972 9.76117 12.6694 9.35076C13.0409 8.93722 13.5495 8.68293 14.1945 8.58544V13.1126ZM16.7688 19.0673C16.3485 19.542 15.8165 19.816 15.1709 19.8944V14.9136C16.0603 15.1987 16.654 15.5203 16.9527 15.8814C17.2515 16.2418 17.4002 16.7195 17.4002 17.3139C17.3996 18.01 17.1898 18.5945 16.7688 19.0673Z" fill="url(#paint1_linear_49_51)"/>
    <defs>
    <linearGradient id="paint0_linear_49_51" x1="0.445313" y1="28.4263" x2="28.2353" y2="0.260189" gradientUnits="userSpaceOnUse">
    <stop stop-color="#FFF7AE"/>
    <stop offset="0.17" stop-color="#FFFACF"/>
    <stop offset="0.37" stop-color="#9B6326"/>
    <stop offset="0.38" stop-color="#FFF7AE"/>
    <stop offset="0.53" stop-color="#D3C175"/>
    <stop offset="0.69" stop-color="#FCEEC4"/>
    <stop offset="0.7" stop-color="#B78626"/>
    <stop offset="0.82" stop-color="#FFFACF"/>
    <stop offset="1" stop-color="#9B6326"/>
    </linearGradient>
    <linearGradient id="paint1_linear_49_51" x1="10.166" y1="22.9131" x2="23.9764" y2="15.4193" gradientUnits="userSpaceOnUse">
    <stop stop-color="#FFF7AE"/>
    <stop offset="0.17" stop-color="#FFFACF"/>
    <stop offset="0.37" stop-color="#9B6326"/>
    <stop offset="0.38" stop-color="#FFF7AE"/>
    <stop offset="0.53" stop-color="#D3C175"/>
    <stop offset="0.69" stop-color="#FCEEC4"/>
    <stop offset="0.7" stop-color="#B78626"/>
    <stop offset="0.82" stop-color="#FFFACF"/>
    <stop offset="1" stop-color="#9B6326"/>
    </linearGradient>
    </defs>
    </svg>
    